<?xml version="1.0" encoding="UTF-8"?>
<svg xmlns="http://www.w3.org/2000/svg" xmlns:xlink="http://www.w3.org/1999/xlink" width="32" height="32" viewBox="0 0 32 32" version="1.1">
    <g id="surface1">
        <path style=" stroke:none;fill-rule:nonzero;fill:rgb(99.215686%,0%,22.745098%);fill-opacity:1;" d="M 16 0 C 9.792969 0 4.75 5.042969 4.75 11.25 C 4.75 13.351562 5.332031 15.394531 6.4375 17.15625 L 15.238281 31.558594 C 15.386719 31.800781 15.613281 31.949219 15.875 31.988281 C 16.230469 32.042969 16.625 31.894531 16.832031 31.539062 L 25.65625 17.007812 C 26.707031 15.28125 27.25 13.273438 27.25 11.25 C 27.25 5.042969 22.207031 0 16 0 Z M 16 16.875 C 12.851562 16.875 10.375 14.324219 10.375 11.25 C 10.375 8.15625 12.90625 5.625 16 5.625 C 19.09375 5.625 21.625 8.15625 21.625 11.25 C 21.625 14.304688 19.1875 16.875 16 16.875 Z M 16 16.875 " />
        <path style=" stroke:none;fill-rule:nonzero;fill:rgb(89.803922%,0%,15.294118%);fill-opacity:1;" d="M 16 0 L 16 5.625 C 19.09375 5.625 21.625 8.15625 21.625 11.25 C 21.625 14.304688 19.1875 16.875 16 16.875 L 16 32 C 16.320312 32.007812 16.648438 31.851562 16.832031 31.539062 L 25.65625 17.007812 C 26.707031 15.28125 27.25 13.273438 27.25 11.25 C 27.25 5.042969 22.207031 0 16 0 Z M 16 0 " />
    </g>
</svg>
