<?xml version="1.0" encoding="UTF-8"?>
<svg xmlns="http://www.w3.org/2000/svg" xmlns:xlink="http://www.w3.org/1999/xlink" width="32pt" height="32pt" viewBox="0 0 32 32" version="1.1">
<g id="surface1">
<path style=" stroke:none;fill-rule:nonzero;fill:rgb(88.627451%,87.843137%,87.843137%);fill-opacity:1;" d="M 25.539062 30.15625 C 19.464844 32.804688 10.660156 32.640625 4.902344 29.378906 C -3.167969 24.808594 -1.003906 16.582031 9.402344 13.828125 C 9.9375 13.6875 10.484375 14.007812 10.625 14.539062 C 10.765625 15.074219 10.449219 15.621094 9.914062 15.761719 C 1.78125 17.917969 -0.964844 23.753906 5.886719 27.640625 C 11.019531 30.546875 19.144531 30.761719 24.742188 28.320312 C 25.246094 28.101562 25.835938 28.332031 26.058594 28.839844 C 26.277344 29.34375 26.046875 29.933594 25.539062 30.15625 Z M 25.539062 30.15625 "/>
<path style=" stroke:none;fill-rule:nonzero;fill:rgb(88.627451%,87.843137%,87.843137%);fill-opacity:1;" d="M 29.160156 27.949219 C 28.972656 28.109375 28.742188 28.191406 28.511719 28.191406 C 27.582031 28.191406 27.15625 27.03125 27.859375 26.429688 C 32.648438 22.335938 28.878906 17.5625 22.085938 15.761719 C 21.550781 15.621094 21.234375 15.074219 21.375 14.539062 C 21.519531 14.007812 22.066406 13.6875 22.597656 13.828125 C 32.015625 16.320312 34.65625 23.25 29.160156 27.949219 Z M 29.160156 27.949219 "/>
<path style=" stroke:none;fill-rule:nonzero;fill:rgb(95.294118%,83.137255%,71.764706%);fill-opacity:1;" d="M 30 28.5 C 30 30.15625 28.65625 31.5 27 31.5 C 25.34375 31.5 24 30.15625 24 28.5 C 24 26.84375 25.34375 25.5 27 25.5 C 28.65625 25.5 30 26.84375 30 28.5 Z M 30 28.5 "/>
<path style=" stroke:none;fill-rule:nonzero;fill:rgb(88.627451%,87.843137%,87.843137%);fill-opacity:1;" d="M 12.945312 20.191406 C 9.421875 20.65625 7.5 21.832031 7.5 22.5 C 7.5 22.730469 7.773438 23.050781 8.230469 23.355469 C 8.691406 23.660156 8.8125 24.28125 8.507812 24.742188 C 8.199219 25.199219 7.578125 25.324219 7.117188 25.015625 C 4.019531 22.941406 5.074219 19.207031 12.683594 18.210938 C 13.230469 18.140625 13.734375 18.523438 13.804688 19.070312 C 13.878906 19.621094 13.492188 20.121094 12.945312 20.191406 Z M 12.945312 20.191406 "/>
<path style=" stroke:none;fill-rule:nonzero;fill:rgb(88.627451%,87.843137%,87.843137%);fill-opacity:1;" d="M 26.5 22.5 C 26.5 26.371094 17.484375 27.820312 11.21875 26.546875 C 10.679688 26.4375 10.328125 25.90625 10.441406 25.367188 C 10.550781 24.824219 11.078125 24.476562 11.621094 24.585938 C 14.871094 25.246094 19.347656 25.148438 22.371094 24.035156 C 23.832031 23.496094 24.5 22.863281 24.5 22.5 C 24.5 21.863281 22.675781 20.667969 19.054688 20.191406 C 18.507812 20.121094 18.125 19.621094 18.195312 19.070312 C 18.265625 18.523438 18.769531 18.140625 19.316406 18.210938 C 22.082031 18.574219 26.5 19.742188 26.5 22.5 Z M 26.5 22.5 "/>
<path style=" stroke:none;fill-rule:nonzero;fill:rgb(80.784314%,80%,80%);fill-opacity:1;" d="M 9.914062 15.761719 C 8.964844 16.015625 8.085938 16.316406 7.277344 16.667969 C 6.941406 16.09375 6.625 15.503906 6.339844 14.898438 C 7.285156 14.476562 8.308594 14.117188 9.402344 13.828125 C 9.9375 13.6875 10.484375 14.007812 10.625 14.539062 C 10.765625 15.074219 10.449219 15.621094 9.914062 15.761719 Z M 9.914062 15.761719 "/>
<path style=" stroke:none;fill-rule:nonzero;fill:rgb(80.784314%,80%,80%);fill-opacity:1;" d="M 13.804688 19.070312 C 13.878906 19.621094 13.492188 20.121094 12.945312 20.191406 C 11.851562 20.335938 10.941406 20.539062 10.199219 20.769531 C 9.765625 20.25 9.328125 19.695312 8.894531 19.101562 C 9.96875 18.703125 11.253906 18.398438 12.683594 18.210938 C 13.230469 18.140625 13.734375 18.523438 13.804688 19.070312 Z M 13.804688 19.070312 "/>
<path style=" stroke:none;fill-rule:nonzero;fill:rgb(80.784314%,80%,80%);fill-opacity:1;" d="M 19.316406 18.210938 C 20.746094 18.398438 22.035156 18.703125 23.109375 19.101562 C 22.675781 19.691406 22.234375 20.25 21.800781 20.769531 C 21.058594 20.539062 20.148438 20.335938 19.054688 20.191406 C 18.507812 20.121094 18.125 19.621094 18.195312 19.070312 C 18.265625 18.523438 18.769531 18.140625 19.316406 18.210938 Z M 19.316406 18.210938 "/>
<path style=" stroke:none;fill-rule:nonzero;fill:rgb(80.784314%,80%,80%);fill-opacity:1;" d="M 25.660156 14.898438 C 25.375 15.503906 25.058594 16.09375 24.722656 16.667969 C 23.917969 16.316406 23.035156 16.015625 22.085938 15.761719 C 21.550781 15.621094 21.234375 15.074219 21.375 14.539062 C 21.519531 14.007812 22.066406 13.6875 22.597656 13.828125 C 23.691406 14.117188 24.71875 14.476562 25.660156 14.898438 Z M 25.660156 14.898438 "/>
<path style=" stroke:none;fill-rule:nonzero;fill:rgb(96.862745%,61.176471%,68.627451%);fill-opacity:1;" d="M 25.121094 9.125 C 25.121094 15.710938 17.007812 22.945312 16.664062 23.25 C 16.285156 23.582031 15.71875 23.585938 15.339844 23.25 C 14.992188 22.945312 6.878906 15.710938 6.878906 9.125 C 6.878906 4.09375 10.972656 0.00390625 16 0.00390625 C 21.03125 0.00390625 25.121094 4.09375 25.121094 9.125 Z M 25.121094 9.125 "/>
<path style=" stroke:none;fill-rule:nonzero;fill:rgb(89.019608%,53.333333%,60.784314%);fill-opacity:1;" d="M 25.121094 9.125 C 25.121094 15.710938 17.007812 22.945312 16.664062 23.25 C 16.472656 23.417969 16.238281 23.5 16 23.5 C 15.539062 23.5 15.304688 23.226562 14.9375 22.882812 C 16.632812 21.296875 22.996094 14.957031 22.996094 9.125 C 22.996094 4.453125 19.46875 0.59375 14.9375 0.0664062 C 20.375 -0.570312 25.121094 3.695312 25.121094 9.125 Z M 25.121094 9.125 "/>
<path style=" stroke:none;fill-rule:nonzero;fill:rgb(88.627451%,87.843137%,87.843137%);fill-opacity:1;" d="M 21 9 C 21 11.761719 18.761719 14 16 14 C 13.238281 14 11 11.761719 11 9 C 11 6.242188 13.238281 4.003906 16 4.003906 C 18.761719 4.003906 21 6.242188 21 9 Z M 21 9 "/>
<path style=" stroke:none;fill-rule:nonzero;fill:rgb(80.784314%,80%,80%);fill-opacity:1;" d="M 21 9 C 21 12.152344 18.101562 14.535156 15 13.902344 C 17.28125 13.4375 19 11.414062 19 9 C 19 6.585938 17.28125 4.566406 15 4.101562 C 18.097656 3.46875 21 5.851562 21 9 Z M 21 9 "/>
<path style=" stroke:none;fill-rule:nonzero;fill:rgb(95.294118%,83.137255%,71.764706%);fill-opacity:1;" d="M 12.5 25 C 12.5 26.65625 11.15625 28 9.5 28 C 7.84375 28 6.5 26.65625 6.5 25 C 6.5 23.34375 7.84375 22 9.5 22 C 11.15625 22 12.5 23.34375 12.5 25 Z M 12.5 25 "/>
<path style=" stroke:none;fill-rule:nonzero;fill:rgb(95.294118%,83.137255%,71.764706%);fill-opacity:1;" d="M 12.5 25 C 12.5 26.65625 11.15625 28 9.5 28 C 7.84375 28 6.5 26.65625 6.5 25 C 6.5 23.34375 7.84375 22 9.5 22 C 11.15625 22 12.5 23.34375 12.5 25 Z M 12.5 25 "/>
<path style=" stroke:none;fill-rule:nonzero;fill:rgb(88.235294%,76.470588%,65.490196%);fill-opacity:1;" d="M 12.5 25 C 12.5 27.066406 10.449219 28.515625 8.5 27.828125 C 9.664062 27.414062 10.5 26.304688 10.5 25 C 10.5 23.695312 9.664062 22.582031 8.5 22.171875 C 10.449219 21.480469 12.5 22.933594 12.5 25 Z M 12.5 25 "/>
<path style=" stroke:none;fill-rule:nonzero;fill:rgb(88.235294%,76.470588%,65.490196%);fill-opacity:1;" d="M 30 28.5 C 30 30.566406 27.945312 32.015625 26 31.328125 C 27.164062 30.914062 28 29.800781 28 28.5 C 28 27.195312 27.164062 26.082031 26 25.671875 C 27.949219 24.980469 30 26.433594 30 28.5 Z M 30 28.5 "/>
</g>
</svg>
