<svg id="Layer_1" enable-background="new 0 0 512 512" height="512" viewBox="0 0 512 512" width="512" xmlns="http://www.w3.org/2000/svg"><g><path d="m11.099 273.866s65.625 95.551 244.901 95.551 244.901-95.551 244.901-95.551c.063-2.282.101-4.57.101-6.868 0-135.311-109.691-245.002-245.002-245.002s-245.002 109.691-245.002 245.002c0 2.297.038 4.586.101 6.868z" fill="#1c2e7a"/><path d="m73.071 107.112c-.939.463-1.533 1.417-1.535 2.464-.002 1.046.59 2.003 1.527 2.469 3.169 1.575 5.236 4.655 5.395 8.04.223 4.728-2.965 8.861-7.58 9.829-1.039.218-1.86 1.015-2.109 2.048s.118 2.117.944 2.784c23.147 18.717 43.194 44.44 59.584 76.454 1.542 3.011-.06 6.192-2.428 7.413-1.13.581-1.714 1.86-1.414 3.094.299 1.234 1.404 2.103 2.674 2.103h29.151c1.309 0 2.436-.922 2.697-2.204.26-1.282-.419-2.571-1.624-3.081-3.34-1.414-5.498-4.671-5.498-8.297 0-4.966 4.04-9.006 9.006-9.006h188.278c4.966 0 9.006 4.04 9.006 9.006 0 3.626-2.158 6.883-5.498 8.297-1.205.51-1.884 1.799-1.624 3.081.261 1.283 1.388 2.204 2.697 2.204h29.151c1.27 0 2.374-.869 2.674-2.103s-.284-2.513-1.413-3.094c-2.368-1.221-3.97-4.402-2.428-7.413 16.39-32.014 36.437-57.737 59.584-76.454.826-.668 1.193-1.752.944-2.784-.249-1.033-1.07-1.83-2.109-2.048-4.615-.968-7.803-5.102-7.58-9.83.159-3.384 2.226-6.464 5.395-8.039.937-.465 1.529-1.422 1.527-2.469-.002-1.046-.597-2.001-1.535-2.464-51.897-25.58-66.696-68.138-81.175-107.112h-203.51c-14.479 38.974-29.278 81.532-81.174 107.112z" fill="#2a428c"/><path d="m443.231 131.962c-.249-1.033-1.07-1.83-2.109-2.048-4.615-.968-7.803-5.102-7.58-9.83.159-3.384 2.226-6.464 5.395-8.039.937-.465 1.529-1.422 1.527-2.469-.002-1.046-.596-2.001-1.535-2.464-51.896-25.58-66.695-68.138-81.174-107.112h-30.281c-1.949 5.656-4.94 11.037-8.993 15.838l-24.524 29.057c-19.843 23.511-56.069 23.511-75.913 0l-24.524-29.057c-4.053-4.802-7.044-10.183-8.993-15.838h-30.281c-14.479 38.974-29.278 81.532-81.174 107.112-.939.463-1.533 1.417-1.535 2.464-.002 1.046.59 2.003 1.527 2.469 3.169 1.575 5.236 4.655 5.395 8.04.223 4.728-2.965 8.861-7.58 9.829-1.039.218-1.86 1.015-2.109 2.048s.118 2.117.944 2.784c23.147 18.717 43.194 44.44 59.584 76.454 1.542 3.011-.06 6.192-2.428 7.413-1.129.581-1.713 1.86-1.413 3.094.299 1.234 1.404 2.103 2.674 2.103h29.151c1.309 0 2.436-.922 2.697-2.204.26-1.282-.419-2.571-1.624-3.081-3.34-1.414-5.498-4.671-5.498-8.297 0-4.966 4.04-9.006 9.006-9.006h188.278c4.966 0 9.006 4.04 9.006 9.006 0 3.626-2.158 6.883-5.498 8.297-1.205.51-1.884 1.799-1.624 3.081.261 1.283 1.388 2.204 2.697 2.204h29.151c1.27 0 2.375-.869 2.674-2.103.3-1.234-.284-2.513-1.413-3.094-2.368-1.221-3.97-4.402-2.428-7.413 16.39-32.014 36.437-57.737 59.584-76.454.823-.667 1.19-1.751.941-2.784z" fill="#1c2e7a"/><path d="m160.951 16.814c-6.603 14.465-15.056 28.895-25.865 42.436l33.494 150.978h154.72z" fill="#73c3f9"/><path d="m215.97 138.66 24.649-26.934-79.668-94.912c-3.503 7.675-7.546 15.335-12.167 22.862l39.673 94.224c4.693 11.144 19.351 13.679 27.513 4.76z" fill="#9bd8f9"/><g><path d="m351.049 16.814-162.349 193.413h154.72l33.494-150.977c-10.809-13.541-19.262-27.971-25.865-42.436z" fill="#fee884"/><path d="m376.914 59.25c-3.662-4.587-7.032-9.282-10.173-14.04l-43.403 77.148c-7.925 14.087-6.252 31.617 4.195 43.95l20.31 23.977z" fill="#fcf2c8"/></g><path d="m188.7 210.227h134.6l-67.3-80.177z" fill="#ffc839"/><path d="m242.782 201.221h26.435c11.516 0 17.786-13.451 10.383-22.271l-13.218-15.747c-5.418-6.454-15.348-6.454-20.766 0l-13.218 15.747c-7.402 8.82-1.131 22.271 10.384 22.271z" fill="#ffb332"/><g><path d="m407.641 210.897c11.104-30.984 25.424-58.702 43.863-79.417h-8.405c-.37 0-.737-.019-1.1-.055-25.896 20.509-46.063 47.893-61.744 78.521-2.818 5.504 1.234 12.039 7.417 12.039h27.798c-5.738 0-9.765-5.687-7.829-11.088z" fill="#e80054"/></g><g><path d="m435.464 212.07c6.113-31.456 14.026-59.614 24.251-80.59h-10.212c-18.439 20.715-32.759 48.433-43.863 79.417-1.935 5.4 2.091 11.088 7.828 11.088h30.144c-5.231 0-9.146-4.779-8.148-9.915z" fill="#ff4155"/></g><g><path d="m381.11 0h-23.355c-7.597 0-12.725 7.816-9.64 14.759 16.168 36.379 43.876 72.816 91.209 95.615 1.278-.484 2.667-.754 4.122-.754h5.133c-37.224-25.974-57.003-69.008-67.469-109.62z" fill="#ff4155"/></g><path d="m443.446 109.62h5.133c-16.862-11.766-30.135-27.039-40.593-43.995-1.964-.006-3.851.936-5.027 2.588-3.685 5.174-8.462 6.062-11.712 5.938-.912-.035-1.802.122-2.619.442 13.718 13.714 30.398 26.004 50.697 35.781 1.277-.483 2.666-.754 4.121-.754z" fill="#e80054"/><g><path d="m379.11 0c10.466 40.612 30.245 83.646 67.469 109.62h11.535c-20.386-25.974-31.222-69.008-36.954-109.62z" fill="#ff7186"/></g><path d="m446.579 109.62h11.535c-10.651-13.571-18.691-31.802-24.763-51.908-1.973-.086-3.916.761-5.18 2.395-5.757 7.441-13.827 6.931-18.725 5.686-1.111-.283-2.243-.22-3.29.109 10.433 16.846 23.653 32.017 40.423 43.718z" fill="#ff4155"/><path d="m467.233 131.48h-9.517c-10.226 20.976-18.138 49.134-24.251 80.59-.998 5.136 2.917 9.914 8.148 9.914h26.048v-90.548c-.143.017-.282.044-.428.044z" fill="#ff7186"/><path d="m419.16 0c5.732 40.612 16.568 83.646 36.955 109.62h11.118c.146 0 .285.028.427.043v-96.403c0-7.323-5.937-13.26-13.26-13.26z" fill="#f9a0b1"/><path d="m456.115 109.62h11.118c.146 0 .285.028.427.043v-54.831c-12.569 9.263-25.477 6.124-32.185 3.344-1.326-.55-2.75-.609-4.057-.246 6.064 20.02 14.084 38.169 24.697 51.69z" fill="#ff7186"/><path d="m467.233 108.231h-23.786c-6.634 0-12.341 5.098-12.654 11.724-.333 7.075 5.304 12.915 12.305 12.915h24.135c2.966 0 5.371-2.405 5.371-5.371v-13.897c0-2.967-2.405-5.371-5.371-5.371z" fill="#ffdd40"/><path d="m361.896 210.227c0-6.494-5.264-11.758-11.757-11.758h-188.278c-6.493 0-11.757 5.264-11.757 11.757 0 6.493 5.264 11.757 11.757 11.757h188.278c6.493.002 11.757-5.262 11.757-11.756z" fill="#ffdd40"/><path d="m221.07 210.227c0-6.494 5.264-11.758 11.757-11.758h-70.967c-6.493 0-11.758 5.264-11.758 11.758 0 6.493 5.264 11.757 11.758 11.757h70.967c-6.493.001-11.757-5.263-11.757-11.757z" fill="#ffb332"/><g><g><path d="m104.359 210.897c-11.104-30.984-25.424-58.702-43.863-79.417h8.405c.37 0 .737-.019 1.1-.055 25.896 20.509 46.063 47.893 61.744 78.521 2.818 5.504-1.234 12.039-7.417 12.039h-27.797c5.737 0 9.763-5.687 7.828-11.088z" fill="#e80054"/></g><g><path d="m76.536 212.07c-6.113-31.456-14.026-59.614-24.251-80.59h10.212c18.439 20.715 32.759 48.433 43.863 79.417 1.935 5.4-2.091 11.088-7.828 11.088h-30.145c5.232 0 9.147-4.779 8.149-9.915z" fill="#ff4155"/></g><g><path d="m130.89 0h23.355c7.597 0 12.725 7.816 9.64 14.759-16.168 36.379-43.876 72.816-91.209 95.615-1.278-.484-2.667-.754-4.122-.754h-5.133c37.224-25.974 57.003-69.008 67.469-109.62z" fill="#ff4155"/></g><path d="m68.553 109.62h-5.133c16.862-11.766 30.135-27.039 40.593-43.995 1.964-.006 3.851.936 5.027 2.588 3.685 5.174 8.462 6.062 11.712 5.938.912-.035 1.802.122 2.619.442-13.718 13.714-30.398 26.004-50.697 35.781-1.276-.483-2.665-.754-4.121-.754z" fill="#e80054"/><g><path d="m132.89 0c-10.466 40.612-30.245 83.646-67.469 109.62h-11.536c20.387-25.974 31.223-69.008 36.955-109.62z" fill="#ff7186"/></g><path d="m65.421 109.62h-11.536c10.652-13.57 18.692-31.802 24.763-51.907 1.972-.086 3.916.761 5.18 2.395 5.757 7.441 13.827 6.931 18.725 5.686 1.111-.283 2.243-.22 3.29.109-10.432 16.845-23.652 32.016-40.422 43.717z" fill="#ff4155"/><path d="m44.767 131.48h9.517c10.226 20.976 18.138 49.134 24.251 80.59.998 5.136-2.917 9.914-8.148 9.914h-26.048v-90.548c.143.017.282.044.428.044z" fill="#ff7186"/><path d="m92.84 0c-5.732 40.612-16.568 83.646-36.955 109.62h-11.118c-.146 0-.285.028-.427.043v-96.403c-.001-7.323 5.936-13.26 13.259-13.26z" fill="#f9a0b1"/><path d="m55.885 109.62h-11.118c-.146 0-.285.028-.427.043v-54.831c12.569 9.263 25.477 6.124 32.185 3.344 1.326-.55 2.75-.609 4.057-.246-6.064 20.02-14.084 38.169-24.697 51.69z" fill="#ff7186"/><path d="m44.767 108.231h23.786c6.634 0 12.342 5.098 12.654 11.724.333 7.075-5.304 12.915-12.305 12.915h-24.135c-2.966 0-5.371-2.405-5.371-5.371v-13.897c0-2.967 2.405-5.371 5.371-5.371z" fill="#ffdd40"/></g><path d="m39.381 292.277c0-9.026 7.385-16.411 16.411-16.411h75.488c9.026 0 16.411 7.385 16.411 16.411 0-9.026 7.385-16.411 16.411-16.411h75.488c9.026 0 16.411 7.385 16.411 16.411 0-9.026 7.385-16.411 16.411-16.411h75.488c9.026 0 16.411 7.385 16.411 16.411 0-9.026 7.385-16.411 16.411-16.411h75.488c9.026 0 16.411 7.385 16.411 16.411 0-7.636 5.293-14.078 12.385-15.887v-33.21h-458.011v33.209c7.093 1.809 12.386 8.252 12.386 15.888z" fill="#1e9ef4"/><g><path d="m155.25 243.18h-128.255v33.209c7.093 1.809 12.386 8.251 12.386 15.887 0-9.026 7.385-16.411 16.411-16.411h75.488c4.982 0 9.457 2.257 12.473 5.792v-23.908c0-6.852 4.969-12.53 11.497-13.663z" fill="#1886ea"/></g><path d="m481.352 221.059h-450.703c-6.493 0-11.757 5.264-11.757 11.757 0 6.493 5.264 11.758 11.757 11.758h450.703c6.493 0 11.758-5.264 11.758-11.758-.001-6.494-5.265-11.757-11.758-11.757z" fill="#73c3f9"/><path d="m142.001 232.816c0-6.493 5.264-11.757 11.757-11.757h-123.109c-6.493 0-11.757 5.264-11.757 11.757s5.264 11.758 11.757 11.758h123.11c-6.494 0-11.758-5.265-11.758-11.758z" fill="#49b1f7"/><path d="m55.792 274.505h75.488c.426 0 .847.022 1.266.054-.827-9.898-9.18-17.744-19.283-17.744h-39.454c-10.103 0-18.456 7.846-19.283 17.744.418-.032.84-.054 1.266-.054z" fill="#e9efff"/><path d="m90.711 270.768c-3.383-5.156-.518-10.042 1.414-12.429.361-.446.552-.979.591-1.523h-18.907c-10.103 0-18.456 7.846-19.283 17.744.418-.032.84-.054 1.266-.054h34.439c1.043-.898 1.303-2.484.48-3.738z" fill="#a8b7ef"/><path d="m77.125 344.932c9.026 0 16.411 7.385 16.411 16.411 0-9.026 7.385-16.411 16.411-16.411h37.744v-54.655c0-9.026-7.385-16.411-16.411-16.411h-75.488c-9.026 0-16.411 7.385-16.411 16.411v54.655z" fill="#ff4155"/><path d="m55.792 273.866c-9.026 0-16.411 7.385-16.411 16.411v54.655h34.286c0-15.066 0-40.136 0-51.191 0-11.508 9.852-16.664 15.681-18.707.641-.225 1.127-.648 1.442-1.168z" fill="#e80054"/><path d="m19.654 327.881h19.727v-37.605c0-9.026-7.385-16.411-16.411-16.411h-11.871c.513 18.617 3.111 36.711 7.558 54.064.331-.021.661-.048.997-.048z" fill="#ff4155"/><path d="m164.101 274.505h75.488c.426 0 .848.022 1.266.054-.827-9.898-9.18-17.744-19.283-17.744h-39.454c-10.103 0-18.456 7.846-19.283 17.744.419-.032.84-.054 1.266-.054z" fill="#e9efff"/><path d="m199.02 270.768c-3.383-5.156-.518-10.042 1.414-12.429.361-.446.551-.979.591-1.523h-18.906c-10.103 0-18.456 7.846-19.283 17.744.418-.032.84-.054 1.266-.054h34.439c1.043-.898 1.302-2.484.479-3.738z" fill="#a8b7ef"/><path d="m185.434 344.932c9.026 0 16.411 7.385 16.411 16.411 0-9.026 7.385-16.411 16.411-16.411h37.744v-54.655c0-9.026-7.385-16.411-16.411-16.411h-75.488c-9.026 0-16.411 7.385-16.411 16.411v54.655z" fill="#ff4155"/><path d="m164.101 273.866c-9.026 0-16.411 7.385-16.411 16.411v54.655h34.286c0-15.066 0-40.136 0-51.191 0-11.508 9.852-16.664 15.681-18.707.641-.225 1.127-.648 1.442-1.168z" fill="#e80054"/><path d="m272.411 274.505h75.488c.426 0 .848.022 1.266.054-.827-9.898-9.18-17.744-19.283-17.744h-39.454c-10.103 0-18.456 7.846-19.283 17.744.418-.032.84-.054 1.266-.054z" fill="#e9efff"/><path d="m307.33 270.768c-3.384-5.156-.518-10.042 1.414-12.429.361-.446.552-.979.591-1.523h-18.906c-10.103 0-18.456 7.846-19.283 17.744.418-.032.84-.054 1.266-.054h34.439c1.042-.898 1.302-2.484.479-3.738z" fill="#a8b7ef"/><path d="m293.744 344.932c9.026 0 16.411 7.385 16.411 16.411 0-9.026 7.385-16.411 16.411-16.411h37.744v-54.655c0-9.026-7.385-16.411-16.411-16.411h-75.488c-9.026 0-16.411 7.385-16.411 16.411v54.655z" fill="#ff4155"/><path d="m272.411 273.866c-9.026 0-16.411 7.385-16.411 16.411v54.655h34.286c0-15.066 0-40.136 0-51.191 0-11.508 9.852-16.664 15.681-18.707.641-.225 1.127-.648 1.442-1.168z" fill="#e80054"/><path d="m380.72 274.505h75.488c.426 0 .848.022 1.266.054-.827-9.898-9.18-17.744-19.283-17.744h-39.454c-10.103 0-18.456 7.846-19.283 17.744.419-.032.84-.054 1.266-.054z" fill="#e9efff"/><path d="m415.639 270.768c-3.384-5.156-.518-10.042 1.414-12.429.361-.446.552-.979.591-1.523h-18.906c-10.103 0-18.456 7.846-19.283 17.744.418-.032.84-.054 1.266-.054h34.439c1.043-.898 1.302-2.484.479-3.738z" fill="#a8b7ef"/><path d="m402.053 344.932c9.026 0 16.411 7.385 16.411 16.411 0-9.026 7.385-16.411 16.411-16.411h37.744v-54.655c0-9.026-7.385-16.411-16.411-16.411h-75.488c-9.026 0-16.411 7.385-16.411 16.411v54.655z" fill="#ff4155"/><path d="m380.72 273.866c-9.026 0-16.411 7.385-16.411 16.411v54.655h34.286c0-15.066 0-40.136 0-51.191 0-11.508 9.852-16.664 15.681-18.707.641-.225 1.127-.648 1.442-1.168z" fill="#e80054"/><path d="m492.346 327.881c.336 0 .666.027.998.048 4.447-17.353 7.045-35.447 7.558-54.064h-11.872c-9.026 0-16.411 7.385-16.411 16.411v37.605z" fill="#e80054"/><path d="m59.108 325.881h-39.454c-.505 0-1.002.034-1.498.072 1.473 5.962 3.163 11.837 5.063 17.618h53.905c.426 0 .848.022 1.266.054-.826-9.898-9.18-17.744-19.282-17.744z" fill="#e9efff"/><path d="m37.651 343.572c.421-.872.4-1.954-.196-2.862-3.384-5.156-.518-10.042 1.414-12.429.555-.686.718-1.577.515-2.399h-19.73c-.505 0-1.002.034-1.498.072 1.473 5.962 3.163 11.837 5.063 17.618z" fill="#a8b7ef"/><path d="m73.809 396.947h19.727v-37.605c0-9.026-7.385-16.411-16.411-16.411h-54.113c7.714 23.685 18.958 45.766 33.08 65.664 2.992-6.835 9.81-11.648 17.717-11.648z" fill="#ff4155"/><path d="m23.012 342.932c.886 2.72 1.824 5.416 2.802 8.092 3.236-3.128 7.286-5 10.278-6.049.974-.341 1.584-1.139 1.776-2.043z" fill="#e80054"/><path d="m109.947 343.572h75.488c.426 0 .847.022 1.266.054-.827-9.898-9.18-17.744-19.283-17.744h-39.454c-10.103 0-18.457 7.846-19.283 17.744.418-.033.839-.054 1.266-.054z" fill="#e9efff"/><path d="m131.28 413.998c9.026 0 16.411 7.385 16.411 16.411 0-9.026 7.385-16.411 16.411-16.411h37.744v-54.655c0-9.026-7.385-16.411-16.411-16.411h-75.488c-9.026 0-16.411 7.385-16.411 16.411v54.655z" fill="#ff4155"/><path d="m218.256 343.572h75.488c.426 0 .848.022 1.266.054-.827-9.898-9.18-17.744-19.283-17.744h-39.454c-10.103 0-18.456 7.846-19.283 17.744.419-.033.84-.054 1.266-.054z" fill="#e9efff"/><path d="m239.589 413.998c9.026 0 16.411 7.385 16.411 16.411 0-9.026 7.385-16.411 16.411-16.411h37.744v-54.655c0-9.026-7.385-16.411-16.411-16.411h-75.488c-9.026 0-16.411 7.385-16.411 16.411v54.655z" fill="#ff4155"/><path d="m326.566 343.572h75.488c.426 0 .848.022 1.266.054-.827-9.898-9.18-17.744-19.283-17.744h-39.454c-10.103 0-18.457 7.846-19.283 17.744.418-.033.839-.054 1.266-.054z" fill="#e9efff"/><path d="m347.899 413.998c9.026 0 16.411 7.385 16.411 16.411 0-9.026 7.385-16.411 16.411-16.411h37.744v-54.655c0-9.026-7.385-16.411-16.411-16.411h-75.488c-9.026 0-16.411 7.385-16.411 16.411v54.655z" fill="#ff4155"/><path d="m492.346 325.881h-39.454c-10.103 0-18.456 7.846-19.283 17.744.418-.032.84-.054 1.266-.054h53.905c1.901-5.781 3.59-11.656 5.063-17.618-.495-.038-.992-.072-1.497-.072z" fill="#e9efff"/><path d="m469.794 339.834c-3.384-5.156-.518-10.042 1.414-12.429.361-.446.552-.979.591-1.523h-18.906c-10.103 0-18.456 7.846-19.283 17.744.418-.032.84-.054 1.266-.054h34.439c1.042-.898 1.302-2.484.479-3.738z" fill="#a8b7ef"/><path d="m361.485 339.834c-3.384-5.156-.518-10.042 1.414-12.429.361-.446.552-.979.591-1.523h-18.906c-10.103 0-18.456 7.846-19.283 17.744.418-.032.84-.054 1.266-.054h34.439c1.042-.898 1.301-2.484.479-3.738z" fill="#a8b7ef"/><path d="m253.175 339.834c-3.383-5.156-.518-10.042 1.414-12.429.361-.446.552-.979.591-1.523h-18.906c-10.103 0-18.456 7.846-19.283 17.744.418-.032.84-.054 1.266-.054h34.439c1.042-.898 1.302-2.484.479-3.738z" fill="#a8b7ef"/><path d="m144.866 339.834c-3.384-5.156-.518-10.042 1.414-12.429.361-.446.552-.979.591-1.523h-18.906c-10.103 0-18.456 7.846-19.283 17.744.418-.032.84-.054 1.266-.054h34.439c1.042-.898 1.301-2.484.479-3.738z" fill="#a8b7ef"/><path d="m438.191 396.947c7.906 0 14.725 4.813 17.717 11.648 14.122-19.897 25.365-41.979 33.08-65.664h-54.113c-9.026 0-16.411 7.385-16.411 16.411v37.605z" fill="#ff4155"/><path d="m434.875 342.932c-9.026 0-16.411 7.385-16.411 16.411v54.655h25.916c4.622 0 8.369-3.747 8.369-8.369v-42.822c0-11.508 9.852-16.664 15.681-18.707.641-.225 1.127-.648 1.442-1.168z" fill="#e80054"/><path d="m326.566 342.932c-9.026 0-16.411 7.385-16.411 16.411v54.655h34.286c0-15.066 0-40.136 0-51.191 0-11.508 9.852-16.664 15.681-18.707.641-.225 1.127-.648 1.442-1.168z" fill="#e80054"/><path d="m218.256 342.932c-9.026 0-16.411 7.385-16.411 16.411v54.655h34.286c0-15.066 0-40.136 0-51.191 0-11.508 9.852-16.664 15.681-18.707.641-.225 1.127-.648 1.442-1.168z" fill="#e80054"/><path d="m109.947 342.932c-9.026 0-16.411 7.385-16.411 16.411v54.655h34.286c0-15.066 0-40.136 0-51.191 0-11.508 9.852-16.664 15.681-18.707.641-.225 1.127-.648 1.442-1.168z" fill="#e80054"/><path d="m113.262 394.947h-39.453c-8.407 0-15.586 5.44-18.241 12.968 1.119 1.588 2.256 3.162 3.411 4.722h72.301c.426 0 .847.022 1.266.054-.827-9.898-9.181-17.744-19.284-17.744z" fill="#e9efff"/><path d="m127.964 466.013h19.727v-37.605c0-9.026-7.385-16.411-16.411-16.411h-72.768c16.317 22.186 36.287 41.508 59.017 57.107 3.016-1.949 6.596-3.091 10.435-3.091z" fill="#ff4155"/><path d="m164.101 412.638h75.488c.426 0 .848.022 1.266.054-.827-9.898-9.18-17.744-19.283-17.744h-39.454c-10.103 0-18.456 7.846-19.283 17.744.419-.033.84-.054 1.266-.054z" fill="#e9efff"/><path d="m199.02 408.9c-3.383-5.156-.518-10.042 1.414-12.429.361-.446.551-.979.591-1.523h-18.906c-10.103 0-18.456 7.846-19.283 17.744.418-.032.84-.054 1.266-.054h34.439c1.043-.898 1.302-2.484.479-3.738z" fill="#a8b7ef"/><path d="m239.589 411.998h-75.488c-9.026 0-16.411 7.385-16.411 16.411v37.605h19.727c9.884 0 18.075 7.516 19.199 17.111 8.478.613 15.229 7.724 15.229 16.351 0-9.026 7.385-16.411 16.411-16.411h37.744v-54.655c0-9.027-7.385-16.412-16.411-16.412z" fill="#ff4155"/><path d="m164.101 411.998c-9.026 0-16.411 7.385-16.411 16.411v54.655h34.286c0-15.066 0-40.136 0-51.191 0-11.508 9.852-16.664 15.681-18.707.641-.225 1.127-.648 1.442-1.167h-34.998z" fill="#e80054"/><path d="m272.411 412.638h75.488c.426 0 .848.022 1.266.054-.827-9.898-9.18-17.744-19.283-17.744h-39.454c-10.103 0-18.456 7.846-19.283 17.744.418-.033.84-.054 1.266-.054z" fill="#e9efff"/><path d="m307.33 408.9c-3.384-5.156-.518-10.042 1.414-12.429.361-.446.552-.979.591-1.523h-18.906c-10.103 0-18.457 7.846-19.283 17.744.418-.032.84-.054 1.266-.054h34.439c1.042-.898 1.302-2.484.479-3.738z" fill="#a8b7ef"/><path d="m293.744 483.064c9.026 0 16.411 7.385 16.411 16.411 0-9.026 7.385-16.411 16.411-16.411h37.744v-54.655c0-9.026-7.385-16.411-16.411-16.411h-75.488c-9.026 0-16.411 7.385-16.411 16.411v54.655z" fill="#ff4155"/><path d="m272.411 411.998c-9.026 0-16.411 7.385-16.411 16.411v54.655h34.286c0-15.066 0-40.136 0-51.191 0-11.508 9.852-16.664 15.681-18.707.641-.225 1.127-.648 1.442-1.167h-34.998z" fill="#e80054"/><path d="m456.432 407.915c-2.655-7.527-9.834-12.968-18.241-12.968h-39.454c-10.103 0-18.456 7.846-19.283 17.744.418-.032.84-.054 1.266-.054h72.301c1.155-1.56 2.292-3.133 3.411-4.722z" fill="#e9efff"/><path d="m415.639 408.9c-3.384-5.156-.518-10.042 1.414-12.429.361-.446.552-.979.591-1.523h-18.906c-10.103 0-18.456 7.846-19.283 17.744.418-.032.84-.054 1.266-.054h34.439c1.043-.898 1.302-2.484.479-3.738z" fill="#a8b7ef"/><path d="m380.72 411.998c-9.026 0-16.411 7.385-16.411 16.411v37.605h19.727c3.839 0 7.419 1.142 10.435 3.091 22.729-15.598 42.7-34.921 59.017-57.107z" fill="#ff4155"/><path d="m394.471 469.104c1.385-.951 2.76-1.916 4.124-2.895 0-12.897 0-26.84 0-34.338 0-11.508 9.852-16.664 15.681-18.707.641-.225 1.127-.648 1.442-1.167h-34.998c-2.257 0-4.41.461-6.372 1.295-5.885 2.5-10.039 8.346-10.039 15.116v37.605h19.727c3.839 0 7.419 1.142 10.435 3.091z" fill="#e80054"/><path d="m167.417 464.013h-39.453c-4.47 0-8.595 1.541-11.879 4.111 7.02 4.892 14.305 9.429 21.834 13.579h47.516c.426 0 .847.022 1.266.054-.827-9.898-9.181-17.744-19.284-17.744z" fill="#e9efff"/><path d="m116.084 468.125c7.02 4.892 14.305 9.429 21.834 13.579h7.669c.694-.923.788-2.24.083-3.315-3.384-5.156-.518-10.042 1.414-12.429.454-.562.643-1.26.589-1.946h-19.71c-4.47-.001-8.594 1.54-11.879 4.111z" fill="#a8b7ef"/><path d="m185.434 481.064h-48.66c20.116 11.228 41.973 19.706 65.071 24.919v-8.508c0-9.027-7.385-16.411-16.411-16.411z" fill="#ff4155"/><path d="m145.949 481.064h-9.175c1.615.901 3.245 1.778 4.882 2.644.937-.418 1.834-.768 2.651-1.054.807-.283 1.361-.881 1.642-1.59z" fill="#e80054"/><path d="m218.256 481.703h75.488c.426 0 .848.022 1.266.054-.827-9.898-9.18-17.744-19.283-17.744h-39.454c-10.103 0-18.456 7.846-19.283 17.744.419-.032.84-.054 1.266-.054z" fill="#e9efff"/><path d="m253.175 477.966c-3.383-5.156-.518-10.042 1.414-12.429.361-.446.552-.979.591-1.523h-18.906c-10.103 0-18.456 7.846-19.283 17.744.418-.032.84-.054 1.266-.054h34.439c1.042-.898 1.302-2.484.479-3.738z" fill="#a8b7ef"/><path d="m293.744 481.064h-75.488c-9.026 0-16.411 7.385-16.411 16.411v8.508c17.423 3.931 35.544 6.017 54.155 6.017s36.732-2.086 54.155-6.018v-8.508c0-9.026-7.385-16.41-16.411-16.41z" fill="#ff4155"/><path d="m344.583 464.013c-10.103 0-18.457 7.846-19.283 17.744.418-.033.84-.054 1.266-.054h47.516c7.53-4.15 14.815-8.686 21.834-13.579-3.285-2.571-7.409-4.111-11.879-4.111z" fill="#e9efff"/><path d="m361.485 477.966c-3.384-5.156-.518-10.042 1.414-12.429.361-.446.552-.979.591-1.523h-18.906c-10.103 0-18.457 7.846-19.283 17.744.418-.032.84-.054 1.266-.054h34.439c1.042-.898 1.301-2.484.479-3.738z" fill="#a8b7ef"/><path d="m310.155 505.982c23.098-5.212 44.955-13.691 65.071-24.919h-48.66c-9.026 0-16.411 7.385-16.411 16.411z" fill="#ff4155"/><g><circle cx="364.31" cy="442.934" fill="#1c2e7a" r="16.812"/><circle cx="367.822" cy="439.087" fill="#2a428c" r="7.214"/></g><g><circle cx="256" cy="442.934" fill="#1c2e7a" r="16.812"/><circle cx="259.513" cy="439.087" fill="#2a428c" r="7.214"/></g><g><circle cx="147.69" cy="442.934" fill="#1c2e7a" r="16.812"/><circle cx="151.203" cy="439.087" fill="#2a428c" r="7.214"/></g><g><circle cx="364.31" cy="304.802" fill="#1c2e7a" r="16.812"/><circle cx="367.822" cy="300.955" fill="#2a428c" r="7.214"/></g><g><circle cx="256" cy="304.802" fill="#1c2e7a" r="16.812"/><circle cx="259.513" cy="300.955" fill="#2a428c" r="7.214"/></g><g><circle cx="147.69" cy="304.802" fill="#1c2e7a" r="16.812"/><circle cx="151.203" cy="300.955" fill="#2a428c" r="7.214"/></g><g><circle cx="472.619" cy="304.802" fill="#1c2e7a" r="16.812"/><circle cx="476.132" cy="300.955" fill="#2a428c" r="7.214"/></g><g><circle cx="39.381" cy="304.802" fill="#1c2e7a" r="16.812"/><circle cx="42.894" cy="300.955" fill="#2a428c" r="7.214"/></g><g><circle cx="418.464" cy="373.868" fill="#1c2e7a" r="16.812"/><circle cx="421.977" cy="370.021" fill="#2a428c" r="7.214"/></g><g><circle cx="310.155" cy="373.868" fill="#1c2e7a" r="16.812"/><circle cx="313.667" cy="370.021" fill="#2a428c" r="7.214"/></g><g><circle cx="201.845" cy="373.868" fill="#1c2e7a" r="16.812"/><circle cx="205.358" cy="370.021" fill="#2a428c" r="7.214"/></g><g><circle cx="93.536" cy="373.868" fill="#1c2e7a" r="16.812"/><circle cx="97.048" cy="370.021" fill="#2a428c" r="7.214"/></g><g><circle cx="418.464" cy="235.736" fill="#1c2e7a" r="16.812"/><path d="m429.191 231.889c0 3.984-3.23 7.214-7.214 7.214s-7.214-3.23-7.214-7.214 3.23-7.214 7.214-7.214 7.214 3.229 7.214 7.214z" fill="#2a428c"/></g><g><circle cx="310.155" cy="235.736" fill="#1c2e7a" r="16.812"/><path d="m320.882 231.889c0 3.984-3.23 7.214-7.214 7.214s-7.214-3.23-7.214-7.214 3.23-7.214 7.214-7.214 7.214 3.229 7.214 7.214z" fill="#2a428c"/></g><g><circle cx="201.845" cy="235.736" fill="#1c2e7a" r="16.812"/><path d="m212.572 231.889c0 3.984-3.23 7.214-7.214 7.214s-7.214-3.23-7.214-7.214 3.23-7.214 7.214-7.214c3.984-.001 7.214 3.229 7.214 7.214z" fill="#2a428c"/></g><g><circle cx="93.536" cy="235.736" fill="#1c2e7a" r="16.812"/><path d="m104.263 231.889c0 3.984-3.23 7.214-7.214 7.214s-7.214-3.23-7.214-7.214 3.23-7.214 7.214-7.214c3.984-.001 7.214 3.229 7.214 7.214z" fill="#2a428c"/></g><path d="m91.516 410.102c-3.384-5.156-.518-10.042 1.414-12.429.63-.779.757-1.819.413-2.726h-19.534c-8.407 0-15.586 5.44-18.241 12.968 1.119 1.588 2.256 3.162 3.411 4.722h32.876c.27-.806.183-1.739-.339-2.535z" fill="#a8b7ef"/><path d="m58.512 411.998c5.005 6.805 10.357 13.338 16.024 19.579.813-10.46 10.048-15.258 15.617-17.21 1.09-.382 1.743-1.332 1.84-2.369z" fill="#e80054"/><path d="m360.121 482.231c.641-.225 1.127-.648 1.442-1.168h-34.998c-9.114 0-16.411 7.51-16.411 16.41v.001 8.508c12.106-2.732 23.866-6.369 35.218-10.82 2.592-7.539 10.003-11.267 14.749-12.931z" fill="#e80054"/><path d="m236.131 500.938c0-11.508 9.852-16.664 15.681-18.707.641-.225 1.127-.648 1.442-1.168h-34.998c-9.115 0-16.411 7.513-16.411 16.41v.001 8.508c11.159 2.518 22.608 4.269 34.286 5.21 0-4.017 0-7.556 0-10.254z" fill="#e80054"/><g fill="#ff7186"><path d="m97.048 292.277c-4.295 0-7.809 3.514-7.809 7.809v13.719c0 4.295 3.514 7.809 7.809 7.809 4.295 0 7.809-3.514 7.809-7.809v-13.719c0-4.295-3.514-7.809-7.809-7.809z"/><path d="m205.358 292.277c-4.295 0-7.809 3.514-7.809 7.809v13.719c0 4.295 3.514 7.809 7.809 7.809 4.295 0 7.809-3.514 7.809-7.809v-13.719c0-4.295-3.514-7.809-7.809-7.809z"/><path d="m313.786 292.277c-4.295 0-7.809 3.514-7.809 7.809v13.719c0 4.295 3.514 7.809 7.809 7.809 4.295 0 7.809-3.514 7.809-7.809v-13.719c0-4.295-3.514-7.809-7.809-7.809z"/><path d="m421.977 292.277c-4.295 0-7.809 3.514-7.809 7.809v13.719c0 4.295 3.514 7.809 7.809 7.809 4.295 0 7.809-3.514 7.809-7.809v-13.719c0-4.295-3.514-7.809-7.809-7.809z"/><path d="m151.313 363.796c-4.295 0-7.809 3.514-7.809 7.809v13.719c0 4.295 3.514 7.809 7.809 7.809 4.295 0 7.809-3.514 7.809-7.809v-13.719c0-4.295-3.514-7.809-7.809-7.809z"/><path d="m259.623 363.796c-4.295 0-7.809 3.514-7.809 7.809v13.719c0 4.295 3.514 7.809 7.809 7.809 4.295 0 7.809-3.514 7.809-7.809v-13.719c0-4.295-3.514-7.809-7.809-7.809z"/><path d="m42.894 363.796c-4.295 0-7.809 3.514-7.809 7.809v1.391c3.233 6.716 6.768 13.259 10.577 19.618 2.937-1.124 5.041-3.97 5.041-7.29v-13.719c0-4.295-3.514-7.809-7.809-7.809z"/><path d="m256 512c3.834 0 7.641-.11 11.432-.285v-2.431c0-4.295-3.514-7.809-7.809-7.809-4.295 0-7.809 3.514-7.809 7.809v2.658c1.394.023 2.786.058 4.186.058z"/><path d="m368.051 363.796c-4.295 0-7.809 3.514-7.809 7.809v13.719c0 4.295 3.514 7.809 7.809 7.809 4.295 0 7.809-3.514 7.809-7.809v-13.719c0-4.295-3.514-7.809-7.809-7.809z"/><path d="m476.242 363.796c-4.295 0-7.809 3.514-7.809 7.809v13.719c0 .986.193 1.927.53 2.797 4.246-7.44 8.117-15.121 11.579-23.023-1.237-.82-2.714-1.302-4.3-1.302z"/><path d="m97.048 430.265c-4.295 0-7.809 3.514-7.809 7.809v8.38c4.179 3.883 8.5 7.614 12.943 11.201 1.634-1.434 2.676-3.53 2.676-5.862v-13.719c-.001-4.294-3.515-7.809-7.81-7.809z"/><path d="m205.358 430.265c-4.295 0-7.809 3.514-7.809 7.809v13.719c0 4.295 3.514 7.809 7.809 7.809 4.295 0 7.809-3.514 7.809-7.809v-13.719c0-4.294-3.514-7.809-7.809-7.809z"/><path d="m313.786 430.265c-4.295 0-7.809 3.514-7.809 7.809v13.719c0 4.295 3.514 7.809 7.809 7.809 4.295 0 7.809-3.514 7.809-7.809v-13.719c0-4.294-3.514-7.809-7.809-7.809z"/><path d="m421.977 430.265c-4.295 0-7.809 3.514-7.809 7.809v13.719c0 .705.103 1.386.28 2.037 5.312-4.507 10.43-9.233 15.338-14.171v-1.585c0-4.294-3.514-7.809-7.809-7.809z"/></g></g></svg>